<svg width="22" height="22" viewBox="0 0 22 22" fill="none" xmlns="http://www.w3.org/2000/svg">
<path d="M15.5833 8.25016V6.41683C15.5833 5.20125 15.1004 4.03547 14.2409 3.17592C13.3813 2.31638 12.2155 1.8335 11 1.8335C9.78438 1.8335 8.61859 2.31638 7.75905 3.17592C6.89951 4.03547 6.41663 5.20125 6.41663 6.41683V8.25016C5.68728 8.25016 4.98781 8.53989 4.47208 9.05562C3.95636 9.57134 3.66663 10.2708 3.66663 11.0002V17.4168C3.66663 18.1462 3.95636 18.8456 4.47208 19.3614C4.98781 19.8771 5.68728 20.1668 6.41663 20.1668H15.5833C16.3126 20.1668 17.0121 19.8771 17.5278 19.3614C18.0436 18.8456 18.3333 18.1462 18.3333 17.4168V11.0002C18.3333 10.2708 18.0436 9.57134 17.5278 9.05562C17.0121 8.53989 16.3126 8.25016 15.5833 8.25016ZM8.24996 6.41683C8.24996 5.68748 8.53969 4.98801 9.05541 4.47229C9.57114 3.95656 10.2706 3.66683 11 3.66683C11.7293 3.66683 12.4288 3.95656 12.9445 4.47229C13.4602 4.98801 13.75 5.68748 13.75 6.41683V8.25016H8.24996V6.41683ZM16.5 17.4168C16.5 17.6599 16.4034 17.8931 16.2315 18.065C16.0596 18.2369 15.8264 18.3335 15.5833 18.3335H6.41663C6.17351 18.3335 5.94035 18.2369 5.76844 18.065C5.59654 17.8931 5.49996 17.6599 5.49996 17.4168V11.0002C5.49996 10.757 5.59654 10.5239 5.76844 10.352C5.94035 10.1801 6.17351 10.0835 6.41663 10.0835H15.5833C15.8264 10.0835 16.0596 10.1801 16.2315 10.352C16.4034 10.5239 16.5 10.757 16.5 11.0002V17.4168Z" fill="#30303C"/>
</svg>
