<svg width="22" height="22" viewBox="0 0 22 22" fill="none" xmlns="http://www.w3.org/2000/svg">
<path d="M17.82 11.9166C17.6183 11.9166 17.4075 11.8524 17.2058 11.8066C16.7974 11.7166 16.3961 11.5971 16.005 11.4491C15.5797 11.2944 15.1123 11.3024 14.6926 11.4716C14.2729 11.6409 13.9306 11.9593 13.7316 12.3658L13.53 12.7783C12.6371 12.2816 11.8167 11.6647 11.0916 10.9449C10.3718 10.2199 9.75497 9.39942 9.2583 8.50659L9.6433 8.24992C10.0497 8.05093 10.3682 7.70866 10.5374 7.28897C10.7066 6.86928 10.7147 6.40184 10.56 5.97659C10.4144 5.58464 10.295 5.18348 10.2025 4.77575C10.1566 4.57409 10.12 4.36325 10.0925 4.15242C9.98115 3.50674 9.64296 2.92202 9.13879 2.50356C8.63462 2.0851 7.99761 1.86039 7.34247 1.86992H4.59247C4.19742 1.86621 3.8062 1.94767 3.44545 2.10874C3.08471 2.26981 2.7629 2.50672 2.50195 2.80334C2.24099 3.09997 2.04701 3.44933 1.93321 3.82766C1.81941 4.20598 1.78846 4.60439 1.84247 4.99575C2.33081 8.83602 4.08466 12.4041 6.82698 15.1365C9.56931 17.8689 13.1438 19.6097 16.9858 20.0841H17.3341C18.0101 20.0851 18.6628 19.8371 19.1675 19.3874C19.4575 19.128 19.6891 18.8101 19.8471 18.4545C20.0052 18.099 20.0859 17.714 20.0841 17.3249V14.5749C20.0729 13.9382 19.841 13.3251 19.4281 12.8403C19.0152 12.3555 18.4468 12.029 17.82 11.9166ZM18.2783 17.4166C18.2781 17.5467 18.2503 17.6754 18.1965 17.7939C18.1428 17.9124 18.0644 18.0182 17.9666 18.1041C17.8642 18.1925 17.7444 18.2586 17.615 18.298C17.4856 18.3375 17.3493 18.3495 17.215 18.3333C13.782 17.8931 10.5932 16.3225 8.15163 13.8694C5.71007 11.4162 4.15468 8.21998 3.7308 4.78492C3.71621 4.65064 3.729 4.51481 3.76839 4.38561C3.80778 4.25642 3.87295 4.13655 3.95997 4.03325C4.04587 3.93547 4.15161 3.85711 4.27015 3.80337C4.38869 3.74963 4.51732 3.72175 4.64747 3.72159H7.39747C7.61064 3.71684 7.81879 3.78656 7.9861 3.91873C8.15341 4.05091 8.26941 4.23728 8.31414 4.44575C8.3508 4.69631 8.39664 4.94381 8.45164 5.18825C8.55753 5.67147 8.69846 6.14633 8.8733 6.60909L7.58997 7.20492C7.48024 7.25526 7.38154 7.32679 7.29953 7.41538C7.21752 7.50398 7.15382 7.6079 7.11209 7.72118C7.07035 7.83446 7.0514 7.95487 7.05633 8.0755C7.06126 8.19612 7.08997 8.31459 7.1408 8.42409C8.46007 11.2499 10.7316 13.5215 13.5575 14.8408C13.7806 14.9324 14.031 14.9324 14.2541 14.8408C14.3685 14.7999 14.4735 14.7367 14.5632 14.6548C14.6529 14.573 14.7255 14.4742 14.7766 14.3641L15.345 13.0808C15.8189 13.2502 16.3025 13.391 16.7933 13.5024C17.0377 13.5574 17.2852 13.6033 17.5358 13.6399C17.7443 13.6846 17.9306 13.8006 18.0628 13.968C18.195 14.1353 18.2647 14.3434 18.26 14.5566L18.2783 17.4166Z" fill="#30303C"/>
</svg>
