<svg width="30" height="30" viewBox="0 0 30 30" fill="none" xmlns="http://www.w3.org/2000/svg">
<path d="M15.0002 0C8.65019 0 3.25014 3.95003 1.05013 9.50008H28.9504C26.7503 3.95003 21.3503 0 15.0002 0Z" fill="#42ADE2"/>
<path d="M15.0002 30C21.3503 30 26.7503 26.05 28.9504 20.4999H1.05013C3.25014 26.05 8.65019 30 15.0002 30Z" fill="#83BF4F"/>
<path d="M30.0002 15.0001C30.0002 13.4501 29.7502 11.9001 29.3002 10.5001H0.700006C0.250002 11.9001 0 13.4501 0 15.0001C0 16.5501 0.250002 18.1001 0.700006 19.5001H29.3002C29.7502 18.1001 30.0002 16.5501 30.0002 15.0001Z" fill="white"/>
<path d="M28.9501 9.50018C29.0001 9.65018 29.1001 9.85019 29.1501 10.0002C29.2001 10.1502 29.2501 10.3502 29.3001 10.5002" fill="#C94747"/>
<path d="M29.1501 10.0004C29.1001 9.85037 29.0001 9.65037 28.9501 9.50037H1.04983C0.999831 9.65037 0.899831 9.85037 0.84983 10.0004C0.79983 10.1504 0.74983 10.3504 0.699829 10.5004H29.3001C29.2501 10.3504 29.2001 10.1504 29.1501 10.0004Z" fill="#C94747"/>
<path d="M0.84983 20C0.899831 20.15 0.999831 20.35 1.04983 20.5H28.9501C29.0001 20.35 29.1001 20.15 29.1501 20C29.2001 19.85 29.2501 19.65 29.3001 19.5H0.699829C0.74983 19.65 0.79983 19.85 0.84983 20Z" fill="#C94747"/>
<path d="M9.20007 7.65004C8.00006 7.65004 7.05005 6.70003 7.05005 5.50002C7.05005 4.30001 8.00006 3.35 9.20007 3.35C9.50007 3.35 9.75008 3.4 10.0001 3.5C9.60008 3.2 9.05007 3 8.50007 3C7.10005 3 6.00005 4.10001 6.00005 5.50002C6.00005 6.90003 7.10005 8.00004 8.50007 8.00004C9.05007 8.00004 9.60008 7.80004 10.0001 7.50004C9.75008 7.60004 9.50007 7.65004 9.20007 7.65004Z" fill="white"/>
<path d="M11.3501 6.59991L11.5501 7.14992H12.1001L11.6501 7.44992L11.8001 7.99993L11.3501 7.64992L10.9001 7.99993L11.1001 7.44992L10.6501 7.14992H11.2001L11.3501 6.59991Z" fill="white"/>
<path d="M13.5002 6.59991L13.6502 7.14992H14.2502L13.8002 7.44992L13.9502 7.99993L13.5002 7.64992L13.0502 7.99993L13.2002 7.44992L12.7502 7.14992H13.3002L13.5002 6.59991Z" fill="white"/>
<path d="M15.6502 6.59991L15.8002 7.14992H16.3502L15.9002 7.44992L16.1002 7.99993L15.6502 7.64992L15.1502 7.99993L15.3502 7.44992L14.9002 7.14992H15.4502L15.6502 6.59991Z" fill="white"/>
<path d="M17.7501 6.59991L17.9501 7.14992H18.5001L18.0501 7.44992L18.2001 7.99993L17.7501 7.64992L17.3001 7.99993L17.4501 7.44992L17.0001 7.14992H17.6001L17.7501 6.59991Z" fill="white"/>
<path d="M19.9003 6.59991L20.0503 7.14992H20.6503L20.1503 7.44992L20.3503 7.99993L19.9003 7.64992L19.4503 7.99993L19.6003 7.44992L19.1503 7.14992H19.7003L19.9003 6.59991Z" fill="white"/>
<path d="M13.5002 4.80035L13.6502 5.35036H14.2502L13.8002 5.65036L13.9502 6.20037L13.5002 5.85036L13.0502 6.20037L13.2002 5.65036L12.7502 5.35036H13.3002L13.5002 4.80035Z" fill="white"/>
<path d="M15.6502 4.80035L15.8002 5.35036H16.3502L15.9002 5.65036L16.1002 6.20037L15.6502 5.85036L15.1502 6.20037L15.3502 5.65036L14.9002 5.35036H15.4502L15.6502 4.80035Z" fill="white"/>
<path d="M17.7501 4.80035L17.9501 5.35036H18.5001L18.0501 5.65036L18.2001 6.20037L17.7501 5.85036L17.3001 6.20037L17.4501 5.65036L17.0001 5.35036H17.6001L17.7501 4.80035Z" fill="white"/>
<path d="M19.9003 4.80035L20.0503 5.35036H20.6503L20.1503 5.65036L20.3503 6.20037L19.9003 5.85036L19.4503 6.20037L19.6003 5.65036L19.1503 5.35036H19.7003L19.9003 4.80035Z" fill="white"/>
<path d="M15.6502 3L15.8002 3.55H16.3502L15.9002 3.85001L16.1002 4.40001L15.6502 4.05001L15.1502 4.40001L15.3502 3.85001L14.9002 3.55H15.4502L15.6502 3Z" fill="white"/>
<path d="M17.7501 3L17.9501 3.55H18.5001L18.0501 3.85001L18.2001 4.40001L17.7501 4.05001L17.3001 4.40001L17.4501 3.85001L17.0001 3.55H17.6001L17.7501 3Z" fill="white"/>
<path d="M19.9003 3L20.0503 3.55H20.6503L20.1503 3.85001L20.3503 4.40001L19.9003 4.05001L19.4503 4.40001L19.6003 3.85001L19.1503 3.55H19.7003L19.9003 3Z" fill="white"/>
</svg>
